STARTFONT 2.1
COMMENT Recovered from arc.ast's:CLARB AST (MIT CADR AST source recovered from ARC!!!)
FONT MIT-CADR-CLARB
SIZE 14 72 72
FONTBOUNDINGBOX 16 14 0 -3
STARTPROPERTIES 2
FONT_ASCENT 11
FONT_DESCENT 3
ENDPROPERTIES
CHARS 97
STARTCHAR C000A
ENCODING -1 10
SWIDTH 0 0
DWIDTH 0 0
BBX 16 14 0 -3
BITMAP
0000
0000
3800
3800
3800
3800
3800
3800
3800
3800
0000
3800
3800
3800
ENDCHAR
STARTCHAR C0014
ENCODING -1 20
SWIDTH 1143 0
DWIDTH 16 0
BBX 16 14 0 -3
BITMAP
0FE0
1FF0
1830
1830
1830
1830
1830
1830
3838
5FF4
8FE2
F55E
2AA8
1FF0
ENDCHAR
STARTCHAR C0020
ENCODING -1 32
SWIDTH 500 0
DWIDTH 7 0
BBX 16 14 0 -3
BITMAP
0000
0000
0000
0000
0000
0000
0000
0000
0000
0000
0000
0000
0000
0000
ENDCHAR
STARTCHAR C0021
ENCODING -1 33
SWIDTH 429 0
DWIDTH 6 0
BBX 16 14 0 -3
BITMAP
0000
3000
3000
3000
3000
3000
3000
3000
0000
3000
3000
0000
0000
0000
ENDCHAR
STARTCHAR C0022
ENCODING -1 34
SWIDTH 500 0
DWIDTH 7 0
BBX 16 14 0 -3
BITMAP
0000
6C00
6C00
6C00
6C00
0000
0000
0000
0000
0000
0000
0000
0000
0000
ENDCHAR
STARTCHAR C0023
ENCODING -1 35
SWIDTH 857 0
DWIDTH 12 0
BBX 16 14 0 -3
BITMAP
0000
06C0
0D80
0D80
3FC0
1B00
7F80
3600
3600
6C00
0000
0000
0000
0000
ENDCHAR
STARTCHAR C0024
ENCODING -1 36
SWIDTH 500 0
DWIDTH 7 0
BBX 16 14 0 -3
BITMAP
1800
3C00
7E00
7800
7800
3800
1C00
1E00
1E00
7E00
3C00
1800
0000
0000
ENDCHAR
STARTCHAR C0025
ENCODING -1 37
SWIDTH 643 0
DWIDTH 9 0
BBX 16 14 0 -3
BITMAP
0000
3300
7E00
3600
0C00
0C00
1800
1800
3000
3600
6F00
6600
0000
0000
ENDCHAR
STARTCHAR C0026
ENCODING -1 38
SWIDTH 643 0
DWIDTH 9 0
BBX 16 14 0 -3
BITMAP
0000
0000
0000
3800
6C00
6C00
3800
3F00
6600
6700
3D80
0000
0000
0000
ENDCHAR
STARTCHAR C0027
ENCODING -1 39
SWIDTH 357 0
DWIDTH 5 0
BBX 16 14 0 -3
BITMAP
0000
3000
3000
3000
3000
6000
0000
0000
0000
0000
0000
0000
0000
0000
ENDCHAR
STARTCHAR C0028
ENCODING -1 40
SWIDTH 571 0
DWIDTH 8 0
BBX 16 14 0 -3
BITMAP
0000
0C00
1800
3000
6000
6000
6000
6000
6000
6000
3000
1800
0C00
0000
ENDCHAR
STARTCHAR C0029
ENCODING -1 41
SWIDTH 571 0
DWIDTH 8 0
BBX 16 14 0 -3
BITMAP
0000
3000
1800
0C00
0600
0600
0600
0600
0600
0600
0C00
1800
3000
0000
ENDCHAR
STARTCHAR C002A
ENCODING -1 42
SWIDTH 714 0
DWIDTH 10 0
BBX 16 14 0 -3
BITMAP
0000
0000
6D80
3F00
1E00
7F80
1E00
3F00
6D80
0000
0000
0000
0000
0000
ENDCHAR
STARTCHAR C002B
ENCODING -1 43
SWIDTH 500 0
DWIDTH 7 0
BBX 16 14 0 -3
BITMAP
0000
0000
0000
1800
1800
7E00
7E00
1800
1800
0000
0000
0000
0000
0000
ENDCHAR
STARTCHAR C002C
ENCODING -1 44
SWIDTH 500 0
DWIDTH 7 0
BBX 16 14 0 -3
BITMAP
0000
0000
0000
0000
0000
0000
0000
0000
0000
7000
3000
3000
6000
0000
ENDCHAR
STARTCHAR C002D
ENCODING -1 45
SWIDTH 500 0
DWIDTH 7 0
BBX 16 14 0 -3
BITMAP
0000
0000
0000
0000
0000
0000
7E00
7E00
0000
0000
0000
0000
0000
0000
ENDCHAR
STARTCHAR C002E
ENCODING -1 46
SWIDTH 500 0
DWIDTH 7 0
BBX 16 14 0 -3
BITMAP
0000
0000
0000
0000
0000
0000
0000
0000
1800
3C00
1800
0000
0000
0000
ENDCHAR
STARTCHAR C002F
ENCODING -1 47
SWIDTH 571 0
DWIDTH 8 0
BBX 16 14 0 -3
BITMAP
0000
0300
0600
0600
0C00
0C00
1800
1800
3000
3000
6000
6000
C000
0000
ENDCHAR
STARTCHAR C0030
ENCODING -1 48
SWIDTH 500 0
DWIDTH 7 0
BBX 16 14 0 -3
BITMAP
0600
3C00
7E00
6600
6600
6600
6600
6600
6600
6600
3C00
0000
0000
0000
ENDCHAR
STARTCHAR C0031
ENCODING -1 49
SWIDTH 500 0
DWIDTH 7 0
BBX 16 14 0 -3
BITMAP
0000
1800
3800
7800
1800
1800
1800
1800
1800
1800
7E00
0000
0000
0000
ENDCHAR
STARTCHAR C0032
ENCODING -1 50
SWIDTH 500 0
DWIDTH 7 0
BBX 16 14 0 -3
BITMAP
0000
3C00
6600
0600
0600
0C00
1800
3000
6000
6000
7E00
0000
0000
0000
ENDCHAR
STARTCHAR C0033
ENCODING -1 51
SWIDTH 500 0
DWIDTH 7 0
BBX 16 14 0 -3
BITMAP
0000
7C00
C600
0600
0600
3C00
0600
0600
0600
C600
7C00
0000
0000
0000
ENDCHAR
STARTCHAR C0034
ENCODING -1 52
SWIDTH 500 0
DWIDTH 7 0
BBX 16 14 0 -3
BITMAP
0000
0C00
1C00
3C00
3C00
6C00
CC00
FE00
0C00
0C00
0C00
0000
0000
0000
ENDCHAR
STARTCHAR C0035
ENCODING -1 53
SWIDTH 500 0
DWIDTH 7 0
BBX 16 14 0 -3
BITMAP
0000
7E00
6000
6000
7C00
0600
0600
0600
0600
6600
3C00
0000
0000
0000
ENDCHAR
STARTCHAR C0036
ENCODING -1 54
SWIDTH 500 0
DWIDTH 7 0
BBX 16 14 0 -3
BITMAP
0000
3C00
6600
6000
6000
7C00
7600
6600
6600
6600
3C00
0000
0000
0000
ENDCHAR
STARTCHAR C0037
ENCODING -1 55
SWIDTH 500 0
DWIDTH 7 0
BBX 16 14 0 -3
BITMAP
0000
FE00
0600
0C00
0C00
1800
1800
3000
3000
6000
6000
0000
0000
0000
ENDCHAR
STARTCHAR C0038
ENCODING -1 56
SWIDTH 500 0
DWIDTH 7 0
BBX 16 14 0 -3
BITMAP
0000
3C00
6600
6600
3C00
1800
3C00
6600
6600
6600
3C00
0000
0000
0000
ENDCHAR
STARTCHAR C0039
ENCODING -1 57
SWIDTH 500 0
DWIDTH 7 0
BBX 16 14 0 -3
BITMAP
0000
3C00
6600
6600
6600
6600
3E00
0600
0600
6600
3C00
0000
0000
0000
ENDCHAR
STARTCHAR C003A
ENCODING -1 58
SWIDTH 571 0
DWIDTH 8 0
BBX 16 14 0 -3
BITMAP
0000
0000
0000
1800
3C00
1800
0000
0000
1800
3C00
1800
0000
0000
0000
ENDCHAR
STARTCHAR C003B
ENCODING -1 59
SWIDTH 500 0
DWIDTH 7 0
BBX 16 14 0 -3
BITMAP
0000
0000
0000
0000
0000
0000
7000
7000
0000
7000
3000
3000
6000
0000
ENDCHAR
STARTCHAR C003C
ENCODING -1 60
SWIDTH 571 0
DWIDTH 8 0
BBX 16 14 0 -3
BITMAP
0000
0000
0000
0600
0C00
1800
3000
6000
3000
1800
0C00
0600
0000
0000
ENDCHAR
STARTCHAR C003D
ENCODING -1 61
SWIDTH 643 0
DWIDTH 9 0
BBX 16 14 0 -3
BITMAP
0000
0000
0000
0000
0000
7F00
7F00
0000
7F00
7F00
0000
0000
0000
0000
ENDCHAR
STARTCHAR C003E
ENCODING -1 62
SWIDTH 571 0
DWIDTH 8 0
BBX 16 14 0 -3
BITMAP
0000
0000
0000
6000
3000
1800
0C00
0600
0C00
1800
3000
6000
0000
0000
ENDCHAR
STARTCHAR C003F
ENCODING -1 63
SWIDTH 571 0
DWIDTH 8 0
BBX 16 14 0 -3
BITMAP
0000
0000
3C00
6600
6600
0600
0C00
1800
1800
1800
0000
1800
0000
0000
ENDCHAR
STARTCHAR C0040
ENCODING -1 64
SWIDTH 786 0
DWIDTH 11 0
BBX 16 14 0 -3
BITMAP
0000
1F00
3180
6EC0
7BC0
7BC0
7BC0
7BC0
6F80
3000
1FC0
0000
0000
0000
ENDCHAR
STARTCHAR C0041
ENCODING -1 65
SWIDTH 643 0
DWIDTH 9 0
BBX 16 14 0 -3
BITMAP
0000
0C00
1E00
3300
3300
6180
6180
7F80
6180
6180
6180
0000
0000
0000
ENDCHAR
STARTCHAR C0042
ENCODING -1 66
SWIDTH 571 0
DWIDTH 8 0
BBX 16 14 0 -3
BITMAP
0000
7C00
6600
6600
6600
7C00
6600
6300
6300
6300
7E00
0000
0000
0000
ENDCHAR
STARTCHAR C0043
ENCODING -1 67
SWIDTH 643 0
DWIDTH 9 0
BBX 16 14 0 -3
BITMAP
0000
1F00
3180
6180
6000
6000
6000
6000
6180
3180
1F00
0000
0000
0000
ENDCHAR
STARTCHAR C0044
ENCODING -1 68
SWIDTH 643 0
DWIDTH 9 0
BBX 16 14 0 -3
BITMAP
0000
7C00
6600
6300
6300
6300
6300
6300
6300
6600
7C00
0000
0000
0000
ENDCHAR
STARTCHAR C0045
ENCODING -1 69
SWIDTH 500 0
DWIDTH 7 0
BBX 16 14 0 -3
BITMAP
0000
7E00
6000
6000
6000
7C00
6000
6000
6000
6000
7E00
0000
0000
0000
ENDCHAR
STARTCHAR C0046
ENCODING -1 70
SWIDTH 500 0
DWIDTH 7 0
BBX 16 14 0 -3
BITMAP
0000
7E00
6000
6000
6000
7C00
6000
6000
6000
6000
6000
0000
0000
0000
ENDCHAR
STARTCHAR C0047
ENCODING -1 71
SWIDTH 643 0
DWIDTH 9 0
BBX 16 14 0 -3
BITMAP
0000
1F00
3180
6000
6000
6000
6780
6180
6180
3380
1F80
0000
0000
0000
ENDCHAR
STARTCHAR C0048
ENCODING -1 72
SWIDTH 714 0
DWIDTH 10 0
BBX 16 14 0 -3
BITMAP
0000
6180
6180
6180
6180
7F80
6180
6180
6180
6180
6180
0000
0000
0000
ENDCHAR
STARTCHAR C0049
ENCODING -1 73
SWIDTH 500 0
DWIDTH 7 0
BBX 16 14 0 -3
BITMAP
0000
7E00
1800
1800
1800
1800
1800
1800
1800
1800
7E00
0000
0000
0000
ENDCHAR
STARTCHAR C004A
ENCODING -1 74
SWIDTH 643 0
DWIDTH 9 0
BBX 16 14 0 -3
BITMAP
0000
3F80
0600
0600
0600
0600
0600
0600
6600
6600
3C00
0000
0000
0000
ENDCHAR
STARTCHAR C004B
ENCODING -1 75
SWIDTH 571 0
DWIDTH 8 0
BBX 16 14 0 -3
BITMAP
0000
6300
6600
6C00
7800
7000
7000
7800
6C00
6600
6300
0000
0000
0000
ENDCHAR
STARTCHAR C004C
ENCODING -1 76
SWIDTH 500 0
DWIDTH 7 0
BBX 16 14 0 -3
BITMAP
0000
6000
6000
6000
6000
6000
6000
6000
6000
6000
7E00
0000
0000
0000
ENDCHAR
STARTCHAR C004D
ENCODING -1 77
SWIDTH 714 0
DWIDTH 10 0
BBX 16 14 0 -3
BITMAP
0000
6180
7380
7F80
6D80
6180
6180
6180
6180
6180
6180
0000
0000
0000
ENDCHAR
STARTCHAR C004E
ENCODING -1 78
SWIDTH 643 0
DWIDTH 9 0
BBX 16 14 0 -3
BITMAP
0000
6180
7180
7980
7980
6D80
6D80
6780
6780
6380
6180
0000
0000
0000
ENDCHAR
STARTCHAR C004F
ENCODING -1 79
SWIDTH 643 0
DWIDTH 9 0
BBX 16 14 0 -3
BITMAP
0000
1E00
3300
6180
6180
6180
6180
6180
6180
3300
1E00
0000
0000
0000
ENDCHAR
STARTCHAR C0050
ENCODING -1 80
SWIDTH 571 0
DWIDTH 8 0
BBX 16 14 0 -3
BITMAP
0000
7E00
6300
6300
6300
6300
7E00
6000
6000
6000
6000
0000
0000
0000
ENDCHAR
STARTCHAR C0051
ENCODING -1 81
SWIDTH 643 0
DWIDTH 9 0
BBX 16 14 0 -3
BITMAP
0000
3E00
6300
6300
6300
6300
6300
6300
6F00
6700
3F00
0180
0000
0000
ENDCHAR
STARTCHAR C0052
ENCODING -1 82
SWIDTH 571 0
DWIDTH 8 0
BBX 16 14 0 -3
BITMAP
0000
7E00
6300
6300
6300
6300
7E00
7800
6C00
6600
6300
0000
0000
0000
ENDCHAR
STARTCHAR C0053
ENCODING -1 83
SWIDTH 571 0
DWIDTH 8 0
BBX 16 14 0 -3
BITMAP
0000
3E00
6300
6000
6000
3E00
0300
0300
0300
6300
3E00
0000
0000
0000
ENDCHAR
STARTCHAR C0054
ENCODING -1 84
SWIDTH 643 0
DWIDTH 9 0
BBX 16 14 0 -3
BITMAP
0000
7F80
0C00
0C00
0C00
0C00
0C00
0C00
0C00
0C00
0C00
0000
0000
0000
ENDCHAR
STARTCHAR C0055
ENCODING -1 85
SWIDTH 643 0
DWIDTH 9 0
BBX 16 14 0 -3
BITMAP
0000
6300
6300
6300
6300
6300
6300
6300
6300
6300
3E00
0000
0000
0000
ENDCHAR
STARTCHAR C0056
ENCODING -1 86
SWIDTH 571 0
DWIDTH 8 0
BBX 16 14 0 -3
BITMAP
0000
C300
C300
C300
6600
6600
6600
3C00
3C00
1800
1800
0000
0000
0000
ENDCHAR
STARTCHAR C0057
ENCODING -1 87
SWIDTH 714 0
DWIDTH 10 0
BBX 16 14 0 -3
BITMAP
0000
6180
6180
6180
6D80
6D80
6D80
7F80
7F80
7380
6180
0000
0000
0000
ENDCHAR
STARTCHAR C0058
ENCODING -1 88
SWIDTH 643 0
DWIDTH 9 0
BBX 16 14 0 -3
BITMAP
0000
6180
6180
3300
1E00
0C00
1E00
3300
6180
6180
6180
0000
0000
0000
ENDCHAR
STARTCHAR C0059
ENCODING -1 89
SWIDTH 571 0
DWIDTH 8 0
BBX 16 14 0 -3
BITMAP
0000
C300
C300
6600
3C00
1800
1800
1800
1800
1800
1800
0000
0000
0000
ENDCHAR
STARTCHAR C005A
ENCODING -1 90
SWIDTH 571 0
DWIDTH 8 0
BBX 16 14 0 -3
BITMAP
0000
7F00
0300
0300
0600
0C00
1800
3000
6000
6000
7F00
0000
0000
0000
ENDCHAR
STARTCHAR C005B
ENCODING -1 91
SWIDTH 571 0
DWIDTH 8 0
BBX 16 14 0 -3
BITMAP
7C00
6000
6000
6000
6000
6000
6000
6000
6000
6000
6000
6000
7C00
0000
ENDCHAR
STARTCHAR C005C
ENCODING -1 92
SWIDTH 571 0
DWIDTH 8 0
BBX 16 14 0 -3
BITMAP
0000
C000
6000
6000
3000
3000
1800
1800
0C00
0C00
0600
0600
0300
0000
ENDCHAR
STARTCHAR C005D
ENCODING -1 93
SWIDTH 571 0
DWIDTH 8 0
BBX 16 14 0 -3
BITMAP
3E00
0600
0600
0600
0600
0600
0600
0600
0600
0600
0600
0600
3E00
0000
ENDCHAR
STARTCHAR C005E
ENCODING -1 94
SWIDTH 571 0
DWIDTH 8 0
BBX 16 14 0 -3
BITMAP
0000
0000
1800
3C00
7E00
1800
1800
1800
1800
1800
0000
0000
0000
0000
ENDCHAR
STARTCHAR C005F
ENCODING -1 95
SWIDTH 714 0
DWIDTH 10 0
BBX 16 14 0 -3
BITMAP
0000
0000
0000
1800
3000
7F80
3000
1800
0000
0000
0000
0000
0000
0000
ENDCHAR
STARTCHAR C0060
ENCODING -1 96
SWIDTH 0 0
DWIDTH 0 0
BBX 16 14 0 -3
BITMAP
0000
0000
0000
0000
0000
0000
0000
0000
0000
0000
0000
0000
0000
FF80
ENDCHAR
STARTCHAR C0061
ENCODING -1 97
SWIDTH 571 0
DWIDTH 8 0
BBX 16 14 0 -3
BITMAP
0000
0000
0000
3E00
6600
0600
3E00
6600
6600
6600
3F00
0000
0000
0000
ENDCHAR
STARTCHAR C0062
ENCODING -1 98
SWIDTH 571 0
DWIDTH 8 0
BBX 16 14 0 -3
BITMAP
6000
6000
6000
7C00
7600
6600
6600
6600
6600
6600
3C00
0000
0000
0000
ENDCHAR
STARTCHAR C0063
ENCODING -1 99
SWIDTH 500 0
DWIDTH 7 0
BBX 16 14 0 -3
BITMAP
0000
0000
0000
1C00
3600
6000
6000
6000
6000
3600
1C00
0000
0000
0000
ENDCHAR
STARTCHAR C0064
ENCODING -1 100
SWIDTH 571 0
DWIDTH 8 0
BBX 16 14 0 -3
BITMAP
0600
0600
0600
3E00
6E00
6600
6600
6600
6600
6600
3E00
0000
0000
0000
ENDCHAR
STARTCHAR C0065
ENCODING -1 101
SWIDTH 500 0
DWIDTH 7 0
BBX 16 14 0 -3
BITMAP
0000
0000
0000
3800
6C00
C600
FE00
C000
C000
6600
3C00
0000
0000
0000
ENDCHAR
STARTCHAR C0066
ENCODING -1 102
SWIDTH 429 0
DWIDTH 6 0
BBX 16 14 0 -3
BITMAP
1E00
3000
3000
3000
7C00
3000
3000
3000
3000
3000
3000
0000
0000
0000
ENDCHAR
STARTCHAR C0067
ENCODING -1 103
SWIDTH 571 0
DWIDTH 8 0
BBX 16 14 0 -3
BITMAP
0000
0000
0000
3C00
6600
6600
6600
6600
6600
6E00
3E00
0600
6600
3C00
ENDCHAR
STARTCHAR C0068
ENCODING -1 104
SWIDTH 571 0
DWIDTH 8 0
BBX 16 14 0 -3
BITMAP
6000
6000
6000
7C00
7600
6600
6600
6600
6600
6600
6600
0000
0000
0000
ENDCHAR
STARTCHAR C0069
ENCODING -1 105
SWIDTH 357 0
DWIDTH 5 0
BBX 16 14 0 -3
BITMAP
7000
7000
0000
7000
3000
3000
3000
3000
3000
3000
3000
0000
0000
0000
ENDCHAR
STARTCHAR C006A
ENCODING -1 106
SWIDTH 500 0
DWIDTH 7 0
BBX 16 14 0 -3
BITMAP
1C00
1C00
0000
1C00
0C00
0C00
0C00
0C00
0C00
0C00
0C00
CC00
CC00
7800
ENDCHAR
STARTCHAR C006B
ENCODING -1 107
SWIDTH 500 0
DWIDTH 7 0
BBX 16 14 0 -3
BITMAP
6000
6000
6000
6600
6C00
7800
7C00
6C00
6C00
6600
6600
0000
0000
0000
ENDCHAR
STARTCHAR C006C
ENCODING -1 108
SWIDTH 357 0
DWIDTH 5 0
BBX 16 14 0 -3
BITMAP
7000
3000
3000
3000
3000
3000
3000
3000
3000
3000
3000
0000
0000
0000
ENDCHAR
STARTCHAR C006D
ENCODING -1 109
SWIDTH 714 0
DWIDTH 10 0
BBX 16 14 0 -3
BITMAP
0000
0000
0000
7F00
6D80
6D80
6D80
6D80
6D80
6D80
6D80
0000
0000
0000
ENDCHAR
STARTCHAR C006E
ENCODING -1 110
SWIDTH 571 0
DWIDTH 8 0
BBX 16 14 0 -3
BITMAP
0000
0000
0000
7C00
7600
6600
6600
6600
6600
6600
6600
0000
0000
0000
ENDCHAR
STARTCHAR C006F
ENCODING -1 111
SWIDTH 500 0
DWIDTH 7 0
BBX 16 14 0 -3
BITMAP
0000
0000
0000
3800
6C00
C600
C600
C600
C600
6C00
3800
0000
0000
0000
ENDCHAR
STARTCHAR C0070
ENCODING -1 112
SWIDTH 571 0
DWIDTH 8 0
BBX 16 14 0 -3
BITMAP
0000
0000
0000
7C00
7600
6300
6300
6300
6300
6600
7C00
6000
6000
6000
ENDCHAR
STARTCHAR C0071
ENCODING -1 113
SWIDTH 571 0
DWIDTH 8 0
BBX 16 14 0 -3
BITMAP
0000
0000
0000
3E00
6E00
C600
C600
C600
C600
6E00
3E00
0600
0600
0600
ENDCHAR
STARTCHAR C0072
ENCODING -1 114
SWIDTH 500 0
DWIDTH 7 0
BBX 16 14 0 -3
BITMAP
0000
0000
0000
6E00
7E00
6000
6000
6000
6000
6000
6000
0000
0000
0000
ENDCHAR
STARTCHAR C0073
ENCODING -1 115
SWIDTH 500 0
DWIDTH 7 0
BBX 16 14 0 -3
BITMAP
0000
0000
0000
3C00
6600
6000
3800
0C00
0600
6600
3C00
0000
0000
0000
ENDCHAR
STARTCHAR C0074
ENCODING -1 116
SWIDTH 429 0
DWIDTH 6 0
BBX 16 14 0 -3
BITMAP
0000
3000
3000
FC00
3000
3000
3000
3000
3000
3C00
1800
0000
0000
0000
ENDCHAR
STARTCHAR C0075
ENCODING -1 117
SWIDTH 571 0
DWIDTH 8 0
BBX 16 14 0 -3
BITMAP
0000
0000
0000
6600
6600
6600
6600
6600
6600
6E00
3E00
0000
0000
0000
ENDCHAR
STARTCHAR C0076
ENCODING -1 118
SWIDTH 571 0
DWIDTH 8 0
BBX 16 14 0 -3
BITMAP
0000
0000
0000
6600
6600
6600
6600
3C00
3C00
1800
1800
0000
0000
0000
ENDCHAR
STARTCHAR C0077
ENCODING -1 119
SWIDTH 714 0
DWIDTH 10 0
BBX 16 14 0 -3
BITMAP
0000
0000
0000
6180
6180
6D80
6D80
6D80
6D80
6D80
3F00
0000
0000
0000
ENDCHAR
STARTCHAR C0078
ENCODING -1 120
SWIDTH 643 0
DWIDTH 9 0
BBX 16 14 0 -3
BITMAP
0000
0000
0000
6300
6300
3600
1C00
1C00
3600
6300
6300
0000
0000
0000
ENDCHAR
STARTCHAR C0079
ENCODING -1 121
SWIDTH 571 0
DWIDTH 8 0
BBX 16 14 0 -3
BITMAP
0000
0000
0000
6600
6600
6600
6600
6600
6600
6600
3E00
0600
6600
3C00
ENDCHAR
STARTCHAR C007A
ENCODING -1 122
SWIDTH 643 0
DWIDTH 9 0
BBX 16 14 0 -3
BITMAP
0000
0000
0000
7F00
0300
0600
0C00
1800
3000
6000
7F00
0000
0000
0000
ENDCHAR
STARTCHAR C007B
ENCODING -1 123
SWIDTH 500 0
DWIDTH 7 0
BBX 16 14 0 -3
BITMAP
0000
1E00
3000
3000
3000
3000
6000
C000
6000
3000
3000
3000
3000
1E00
ENDCHAR
STARTCHAR C007C
ENCODING -1 124
SWIDTH 571 0
DWIDTH 8 0
BBX 16 14 0 -3
BITMAP
1800
1800
1800
1800
1800
1800
1800
1800
1800
1800
1800
1800
1800
1800
ENDCHAR
STARTCHAR C007D
ENCODING -1 125
SWIDTH 500 0
DWIDTH 7 0
BBX 16 14 0 -3
BITMAP
0000
F000
1800
1800
1800
1800
0C00
0600
0C00
1800
1800
1800
1800
F000
ENDCHAR
STARTCHAR C007E
ENCODING -1 126
SWIDTH 714 0
DWIDTH 10 0
BBX 16 14 0 -3
BITMAP
0000
0000
3980
6D80
6700
0000
0000
0000
0000
0000
0000
0000
0000
0000
ENDCHAR
ENDFONT
